# xmcd CD database file
#
# Track frame offsets:
#	150
#	12487
#	26495
#	40400
#	53825
#	66697
#	79595
#	93497
#	107447
#	120115
#	132860
#	146660
#	161615
#	174812
#	189512
#	204065
#
# Disc length: 2922 seconds
#
# Revision: 0
# Processed by: cddbd v1.5.2PL0 Copyright (c) Steve Scherf et al.
# Submitted via: CDex 1.79
#
DISCID=cb0b6810
DTITLE=Various Artist - Good Mornin' Blues MICH7316
DYEAR=1996
DGENRE=Blues
TTITLE0=Roosevelt Sykes - 15 Cents A Day
TTITLE1=Blind Boy Fuller - I'm A Rattlesnakin' Daddy
TTITLE2=Big Bill Broonzy - Worrying You Off My Mind
TTITLE3=Leroy Carr - Good Woman Blues
TTITLE4=Big Bill Broonzy - You Know I Got A Reason
TTITLE5=Robert Johnson - When You Got A Good Friend
TTITLE6=Sleepy Joe Estes - I Ain'y Gonna Be Worried
TTITLE7=Barbecue Bob - She's Coming Back Some Rainy Day
TTITLE8=Bukka White - Pinebluff Arkansas
TTITLE9=Biig Bill Broonzy - It's Your Time Now
TTITLE10=Blind Willie Johnson - I Know His Blood Can Make Me Whole
TTITLE11=Roosevelt Sykes - Jivin' Jive
TTITLE12=Tampa Red - Denver Blues
TTITLE13=Barbecue Bob -  Motherless Children Blues
TTITLE14=Arthur "Big Boy" Crudup - Dead Valley Blues
TTITLE15=Blind Willie Johnson - Dark Was The Night, Cold Was The Ground
EXTD=YEAR: 1996
EXTT0=
EXTT1=
EXTT2=
EXTT3=
EXTT4=
EXTT5=
EXTT6=
EXTT7=
EXTT8=
EXTT9=
EXTT10=
EXTT11=
EXTT12=
EXTT13=
EXTT14=
EXTT15=
PLAYORDER=
